<svg xmlns="http://www.w3.org/2000/svg" width="22.42" height="20.344" viewBox="0 0 22.42 20.344">
  <g id="Group_272" data-name="Group 272" transform="translate(-23.498 -266.498)">
    <g id="user-shape" transform="translate(25.68 271.048)">
      <g id="person">
        <path id="Path_397" data-name="Path 397" d="M7.9,7.9A3.948,3.948,0,1,0,3.948,3.948,3.96,3.96,0,0,0,7.9,7.9Zm0,1.974C5.232,9.871,0,11.154,0,13.82v1.974H15.794V13.82C15.794,11.154,10.562,9.871,7.9,9.871Z" />
      </g>
    </g>
    <path id="Path_399" data-name="Path 399" d="M4.051,4.373A2.186,2.186,0,0,0,5.2,2.457,2.393,2.393,0,0,0,3.058,0,3.834,3.834,0,0,0,1.489.211,9.846,9.846,0,0,1,0,2.5,10.677,10.677,0,0,1,4.051,4.373Z" transform="matrix(0.999, -0.035, 0.035, 0.999, 37.085, 277.62)" />
    <path id="Path_400" data-name="Path 400" d="M6.793,4.836a.458.458,0,0,0-.458-.458H5.394a4.347,4.347,0,0,0-.317-.761l.666-.666a.458.458,0,0,0,0-.648L4.57,1.13a.457.457,0,0,0-.648,0L3.255,1.8a4.279,4.279,0,0,0-.761-.316V.539A.457.457,0,0,0,2.037.081L1.156.051A3.114,3.114,0,0,0,.38.024,2.46,2.46,0,0,1,.466,1.271C.285,2.2.055,2.372,0,2.75a4.346,4.346,0,0,1,1.207.041A2.87,2.87,0,0,1,2.76,8.079,6.555,6.555,0,0,1,4.1,10.307a.47.47,0,0,0,.152.029.457.457,0,0,0,.324-.134L5.745,9.029a.461.461,0,0,0,0-.648l-.668-.667a4.328,4.328,0,0,0,.317-.761h.941A.459.459,0,0,0,6.794,6.5Z" transform="matrix(0.999, -0.035, 0.035, 0.999, 38.769, 274.35)" />
    <path id="Path_390" data-name="Path 390" d="M1.916,0A1.912,1.912,0,0,0,.73,3.411,4.139,4.139,0,0,1,3.467.8,1.913,1.913,0,0,0,1.916,0Z" transform="matrix(0.966, -0.259, 0.259, 0.966, 27.204, 270.985)" />
    <path id="Path_391" data-name="Path 391" d="M1.237,6.081a3.978,3.978,0,0,0,.28.673l-.589.589a.406.406,0,0,0,0,.573L1.966,8.955a.407.407,0,0,0,.574,0l.588-.589c.088.047.186.075.278.116,0-.007,0-.014,0-.02A6.041,6.041,0,0,1,3.559,7.1,2.561,2.561,0,1,1,7.168,3.687a4.467,4.467,0,0,1,1.447.042,3.867,3.867,0,0,0-.25-.6l.589-.59a.4.4,0,0,0,0-.573L7.917.928a.4.4,0,0,0-.573,0l-.591.59a3.8,3.8,0,0,0-.673-.279V.405A.4.4,0,0,0,5.676,0H4.207A.406.406,0,0,0,3.8.405v.833a3.836,3.836,0,0,0-.673.279L2.54.928a.405.405,0,0,0-.573,0L.928,1.966a.407.407,0,0,0,0,.574l.589.589a3.878,3.878,0,0,0-.279.673H.405A.405.405,0,0,0,0,4.207V5.676a.406.406,0,0,0,.405.405Z" transform="matrix(0.966, -0.259, 0.259, 0.966, 23.498, 268.847)" />
  </g>
</svg>
