
<svg version="1.1" xmlns="http://www.w3.org/2000/svg" xmlns:xlink="http://www.w3.org/1999/xlink" x="0px" y="0px" viewBox="0 0 1000 1000" width="18px" height="18px">
<g><g transform="translate(0.000000,511.000000) scale(0.100000,-0.100000)"><path d="M8029.5,4978.8c-73-25.9-263.8-202.6-808-746.8l-713.8-713.8l954.1-954.1l954.1-954.1l697.3,695c723.2,720.9,786.8,798.6,786.8,977.6s-63.6,256.8-791.5,982.4c-588.9,581.9-720.9,702-798.6,723.2C8189.7,5021.2,8142.6,5018.9,8029.5,4978.8z"/><path d="M3325,333.3C1798.5-1193.3,540.5-2465.4,526.4-2496c-33-61.2-426.4-2009.5-426.4-2103.7c0-96.6,23.6-136.7,98.9-176.7c63.6-33,129.6-23.6,1086,167.2c560.7,110.7,1055.4,219.1,1102.5,237.9c56.5,23.6,1010.6,963.5,2850.5,2803.4l2765.7,2765.7l-954.1,954.1L6095.4,3106L3325,333.3z"/></g></g>
</svg>