<svg xmlns="http://www.w3.org/2000/svg" width="17.783" height="23.442" viewBox="0 0 17.783 23.442">
  <g id="shield" transform="translate(-7)">
    <path id="Path_403" data-name="Path 403" d="M15.892,0S13.2,3.233,7,3.233v7.714a13.19,13.19,0,0,0,4.916,10.4,11.92,11.92,0,0,0,3.975,2.094,11.924,11.924,0,0,0,3.975-2.094,13.19,13.19,0,0,0,4.916-10.4V3.233C18.586,3.233,15.892,0,15.892,0Z" transform="translate(0)" />
    <path id="Path_404" data-name="Path 404" d="M19.467,25.545a9.82,9.82,0,0,1-2.477-1.438A10.822,10.822,0,0,1,13,15.612V10.173A14.7,14.7,0,0,0,19.467,7.83Z" transform="translate(-3.575 -4.665)" fill="#707070"/>
  </g>
</svg>
