<svg xmlns="http://www.w3.org/2000/svg" width="20.31" height="20.31" viewBox="0 0 20.31 20.31">
  <g id="statistics" transform="translate(0 0)">
    <path id="Path_401" data-name="Path 401" d="M32.785,9.52a1.776,1.776,0,0,0,1.236-.5l1.761.881a1.747,1.747,0,0,0-.022.216,1.785,1.785,0,0,0,3.57,0,1.763,1.763,0,0,0-.179-.765l2.389-2.389a1.763,1.763,0,0,0,.765.179A1.787,1.787,0,0,0,44.09,5.355,1.758,1.758,0,0,0,44,4.826L46.077,3.27a1.784,1.784,0,1,0-.8-1.485,1.758,1.758,0,0,0,.089.529L43.293,3.87A1.777,1.777,0,0,0,40.7,6.12L38.31,8.509a1.754,1.754,0,0,0-2,.323l-1.761-.881a1.747,1.747,0,0,0,.022-.216A1.785,1.785,0,1,0,32.785,9.52Zm0,0" transform="translate(-29.77)" />
    <path id="Path_402" data-name="Path 402" d="M19.715,163.17H19.08V150.6a.6.6,0,0,0-.6-.6h-2.38a.6.6,0,0,0-.6.6V163.17H14.32v-9a.6.6,0,0,0-.6-.6h-2.38a.6.6,0,0,0-.6.6v9H9.56v-4.244a.6.6,0,0,0-.6-.6H6.585a.6.6,0,0,0-.6.6v4.244H4.8v-6.624a.6.6,0,0,0-.6-.6H1.825a.6.6,0,0,0-.6.6v6.624H.6a.6.6,0,1,0,0,1.19h19.12a.6.6,0,1,0,0-1.19Zm0,0" transform="translate(0 -144.05)" />
  </g>
</svg>
